<svg width="112" height="34" viewBox="0 0 112 34" fill="none" xmlns="http://www.w3.org/2000/svg">
<g clip-path="url(#clip0_4605_910)">
<path d="M9.47692 12.0645V8.7742H4.09231L3.12308 14.258H6.24616C6.03077 14.8064 5.92308 15.3548 5.81539 15.9032L3.98461 26.542C3.87692 27.2 3.87692 27.858 3.98461 28.5161H0.969231L0 34H13.6769L14.6461 28.5161H11.7385C10.4462 28.5161 9.36923 27.3096 9.58461 25.9936L11.0923 16.8903C11.3077 15.3548 12.6 14.258 14.1077 14.258H20.2461L17.9847 27.3096C17.8769 28.1871 17.8769 29.1741 18.0923 30.0516C18.8461 32.4645 21 34 23.3692 34H61.3847L70.4308 14.258H75.4923L73.2308 27.3096C73.1231 28.1871 73.1231 29.1741 73.3384 30.0516C74.3077 32.4645 76.4616 34 78.8308 34H111.031L112 28.5161H109.308C108.015 28.5161 106.938 27.3096 107.154 25.9936L111.569 0H100.8L99.8308 5.48387H105.215L101.554 26.542C101.446 27.2 101.446 27.858 101.554 28.5161H80.8769C79.5847 28.5161 78.5077 27.3096 78.7231 25.9936L79.0461 24.1291H96.4923L98.1077 14.9161C98.2153 14.0387 98.2153 13.0516 97.8923 12.1742C97.1384 10.0903 95.2 8.88387 93.1539 8.88387H66.8769L57.8308 28.6259H56.2153L53.7384 14.3677H59.2308L60.2 8.88387H47.3847L50.8308 28.6259H26.1692C24.8769 28.6259 23.8 27.4193 24.0153 26.1032L24.3384 24.2387H41.7847L43.4 15.0259C43.5077 14.1484 43.5077 13.1613 43.1847 12.2839C42.4308 10.2 40.4923 8.99355 38.4461 8.99355H30.1539H25.6308H17.6616C16.4769 8.99355 15.4 9.10323 14.3231 9.54193C13.1385 9.87096 11.9538 10.8581 11.0923 12.0645H9.47692ZM80.2308 16.1225C80.4461 15.0259 81.3077 14.258 82.3847 14.258H84.8616H90.3539C91.6461 14.258 92.7231 15.4645 92.5077 16.7807L92.1847 18.6452H79.8L80.2308 16.1225ZM25.6308 16.1225C25.8461 15.0259 26.7077 14.258 27.7847 14.258H30.2616H35.7539C37.0461 14.258 38.1231 15.4645 37.9077 16.7807L37.4769 18.6452H25.2L25.6308 16.1225Z" fill="#01B9F2"/>
</g>
<defs>
<clipPath id="clip0_4605_910">
<rect width="112" height="34" fill="white"/>
</clipPath>
</defs>
</svg>
